/* XPM */
static char *a3a725d834ae403e9f1ba7dfcfb5ebd6VA7SsXUO34WGINzB[] = {
/* columns rows colors chars-per-pixel */
"32 32 18 1 ",
"  c #72751B",
". c #7F8226",
"X c #787B21",
"o c #656C17",
"O c black",
"+ c #FABB39",
"@ c #FDC34C",
"# c #FDE77F",
"$ c #FAC751",
"% c #36221D",
"& c #4D3124",
"* c #604133",
"= c #604233",
"- c #7F8124",
"; c #686F16",
": c #B3B0A9",
"> c #A2814F",
", c #636917",
/* pixels */
"                                ",
"                   ..           ",
"             X   XX.            ",
"              .. XXo            ",
"              .XXoo             ",
"        OO    oXX       OO      ",
"       O+@O    o       O##O     ",
"       O+$OOOOOOOOOOOOOO$#O     ",
"       O+$O%%%%%%%%%%%%O$#O     ",
"       O+$O%%&&&&&&&&&&O$#O     ",
"       O+$O%&&&&&&&&&&&O$$O     ",
"       O+$O&&&&&&******O#$O     ",
"       O+$O&&&**OO*****O$$O     ",
"       O+$OOOOOO##OOOOOO$#O     ",
"       O+$+++++$$#$$$$$$$#O     ",
"       O+$$$$$$$$#$$$$$$$#O     ",
"       O+$OOOOOO$#OOOOOO$#O     ",
"       O+$O&&==O$$O====O$$O     ",
"       O+$O&&===OO=====O$$O     ",
"       O+$O&&==========O$$O     ",
"       O+$OO&&========OO$#O     ",
"       O+@$OOOOOOOOOOOO###O     ",
"       O++@@@@@$$$$$######O     ",
"       OOOOOOOOOOOOOOOOOOOO-    ",
"     .                    XX  -X",
"    .                  -  X; X--",
"   XX                   -X; XX-;",
"   XXo                 ;XX  XX;X",
"   ooX.                 ;X  ::XX",
"     XX                  ; :>>:;",
"     oo                    ,::, ",
"                            ,,  "
};
