/* XPM */
static char *_e7999b9f4c64502e42195894c80087aSRQXpk1LPAi3a9kO[] = {
/* columns rows colors chars-per-pixel */
"32 32 13 1 ",
"  c #72751B",
". c #7F8226",
"X c #787B21",
"o c #656C17",
"O c black",
"+ c #FFB515",
"@ c #FED376",
"# c #FFE793",
"$ c #7F8124",
"% c #686F16",
"& c #B3B0A9",
"* c #A2814F",
"= c #636917",
/* pixels */
"                                ",
"                   ..           ",
"             X   XX.            ",
"              .. XXo            ",
"              .XXoo             ",
"              oXX               ",
"               o      OO        ",
"                     O+O        ",
"                    O+@O        ",
"                   O++@O        ",
"                  O+@@#O        ",
"                 O+@@##O        ",
"                O+@@@#OO        ",
"               O+@@@##O         ",
"              O+@@@#OO          ",
"             O+@@@##O           ",
"            O+@@@#OO            ",
"           O++@@##O             ",
"          O+@@@#OO              ",
"      OOOO++@@##O               ",
"     O++++@@@#OO                ",
"    O++@@@@@@#O                 ",
"   O++@@@@@@#O                  ",
"   O+@@@@@@#O              $    ",
"   O+@O@@@@#O             XX  $X",
"   O+O O@@@#O          $  X% X$$",
"   O+@O O@##O           $X% XX$%",
"   XO@@O@@#O           %XX  XX%X",
"   ooO####O             %X  &&XX",
"     XOOOO               % &**&%",
"     oo                    =&&= ",
"                            ==  "
};
