/* XPM */
static char *c55942a2223e4f42eec24faf48116d3bugj0AuRa7jmqjJeF[] = {
/* columns rows colors chars-per-pixel */
"32 32 9 1 ",
"  c #72751B",
". c #7F8226",
"X c #787B21",
"o c #656C17",
"O c #7F8124",
"+ c #686F16",
"@ c #B3B0A9",
"# c #A2814F",
"$ c #636917",
/* pixels */
"                                ",
"                   ..           ",
"             X   XX.            ",
"              .. XXo            ",
"              .XXoo             ",
"              oXX               ",
"               o                ",
"                                ",
"                                ",
"                                ",
"                                ",
"                                ",
"                                ",
"                                ",
"                                ",
"                                ",
"                                ",
"                                ",
"                                ",
"                                ",
"                                ",
"                                ",
"                                ",
"                           O    ",
"     .                    XX  OX",
"    .                  O  X+ XOO",
"   XX                   OX+ XXO+",
"   XXo                 +XX  XX+X",
"   ooX.                 +X  @@XX",
"     XX                  + @##@+",
"     oo                    $@@$ ",
"                            $$  "
};
