/* XPM */
static char *cea4c75364f4417e9b0bc568054193e0qqE7jBGJgBMpnYZQ[] = {
/* columns rows colors chars-per-pixel */
"32 32 22 1 ",
"  c #72751B",
". c #7F8226",
"X c #787B21",
"o c black",
"O c #FAC751",
"+ c #656C17",
"@ c #69412F",
"# c #4D3024",
"$ c #F8CA37",
"% c #F1AB30",
"& c #FDEA9D",
"* c #EC7424",
"= c #FABB39",
"- c #FDE77F",
"; c #4D3124",
": c #604233",
"> c #7F8124",
", c #FDC34C",
"< c #686F16",
"1 c #B3B0A9",
"2 c #A2814F",
"3 c #636917",
/* pixels */
"                                ",
"                   ..           ",
"             X   ooo            ",
"              ..oOOOo           ",
"              .XoOOOo           ",
"              +XoOOOo           ",
"          ooooooooooooooooooo   ",
"         oo@@@@@@@@@@@@@@@@oo   ",
"        o#o@@@@@@@@@@@@@@@ooo   ",
"       o##o@@@oo@@@@@@@@@@o#o   ",
"      o###o@ooo$o@@@@@@@@o##o   ",
"     o####ooo$%&$ooo@@@@o###o   ",
"    o#####o*%$$$&$%$o@@o####o   ",
"    o###oo*%&&$&$&$%&o@o####o   ",
"    o#ooo*%&$%&%$%$&*o@o###o    ",
"    oo&%%&%&%%&&&*****oo###o    ",
"    ooooooooooooooooooooooo     ",
"    o=O=====OO-OOOOOOO-o        ",
"    o=OOOOOOOO-OOOOOOO-o        ",
"    o=OooooooooooooooO-o        ",
"    o=Oo;;::::::::::oOOo        ",
"    o=Oo;;::::::::::oOOo        ",
"    o=Oo;;::::::::::oOOo        ",
"    o=Ooo;;::::::::ooO-o   >    ",
"    o=,Ooooooooooooo---o  XX  >X",
"    o==,,,,,OOOOO------o  X< X>>",
"   Xoooooooooooooooooooo>X< XX><",
"   XX+                 <XX  XX<X",
"   ++X.                 <X  11XX",
"     XX                  < 1221<",
"     ++                    3113 ",
"                            33  "
};
