/* XPM */
static char *_529267a67024086abb86e0f7f3cc13dKnESv05BPauEYYMj[] = {
/* columns rows colors chars-per-pixel */
"32 32 26 1 ",
"  c #72751B",
". c #7D311A",
"X c #4D0F0A",
"o c #EC8D2F",
"O c #FCDCA0",
"+ c #120022",
"@ c #FBFFE2",
"# c #2E5887",
"$ c #2C2C2C",
"% c #F2BF57",
"& c #B05F28",
"* c #3F4B4E",
"= c #7E8E93",
"- c gray99",
"; c #C3CBDB",
": c #320632",
"> c #560B28",
", c #8173A8",
"< c #7F8124",
"1 c #7F8226",
"2 c #787B21",
"3 c #686F16",
"4 c #656C17",
"5 c #B3B0A9",
"6 c #A2814F",
"7 c #636917",
/* pixels */
"              .....             ",
"            ......X..           ",
"            .....XXX.           ",
"           ......oooX.          ",
"           .....oOOOX.          ",
"          .....++OO+X.          ",
"          ....o@#OO#X. $$       ",
"          .....OOOOOX. %$       ",
"          .....oOOOoX.%&        ",
"          ......ooXX.%&         ",
"          .&&*=.OO=*&&          ",
"          %%%$*=oOO=*&&         ",
"         $$%%$*======$&         ",
"        ==$$$***=====$$         ",
"        ===$  ******$$$         ",
"        *==  -**====$$**        ",
"       ==*= ;**======***        ",
"       ===*-::%@:>>:%:***       ",
"       ===--::&%>>>>&:*++       ",
"       ++=;::+:>>>>>:++++       ",
"       +++,:++>>>>>>++ ++       ",
"       ++-;:++>>>>>>++          ",
"       --;;:++>>>>>+++          ",
"       ---:+++>>:>>++      <    ",
"     1    :+&&>>:>>&&     22  <2",
"    1     :&%%>>:>&%%  <  23 2<<",
"   22     :%%%>:::%%%   <23 22<3",
"   224    **%%>:::*%%  322  2232",
"   4421   ***:::::**    32  5522",
"     22   ==*  :::==     3 56653",
"     44   ==    : ==       7557 ",
"          ***     ***       77  "
};
