/* XPM */
static char *b1bdc2bee84f4c4ea3c2eff034590831AWS6O1o9NcWBCab0[] = {
/* columns rows colors chars-per-pixel */
"32 32 19 1 ",
"  c #72751B",
". c #7F8226",
"X c #787B21",
"o c #656C17",
"O c #352D38",
"+ c #7F7A85",
"@ c #A7A4AB",
"# c #625969",
"$ c #261F29",
"% c #4C464F",
"& c #484A11",
"* c #32330C",
"= c #7F8124",
"- c #373911",
"; c #4C4E15",
": c #373810",
"> c #686F16",
", c #515217",
"< c #636917",
/* pixels */
"                                ",
"                   ..           ",
"             X   XX.            ",
"              .. XXo            ",
"              .XXoo             ",
"              OOOOOOO           ",
"             O+@@+@@@O          ",
"            O#@++++@+@O         ",
"           O#+++#+++++@O        ",
"          O#+#+#++#++@+@O       ",
"         O#######+++#++@@O      ",
"        OO$+##+#+#+#++++@O      ",
"       O#+OOO$$######+#+@O      ",
"      O###+++OOOO$+###+++O      ",
"      O%#####++++O$#+###+#O     ",
"     O%###%######+O$##+##+O     ",
"     O#%#%##%###%#%#####+%O     ",
"     $O%%%%%##%#####%#%#%%O     ",
"     $$O%%%#%####%###%##%%O     ",
"    &$$$OO%%%%%#%##%#%%%#%O     ",
"   &*$$$$$O%%#%%%%%%%%%%OO$     ",
"   &*$$$$$$O%%%%%%%%%#OO$$$     ",
"   &**$$$$$$O%%#%%#%OO$$$$*     ",
"   &***$$$$$$O%%%%%O$$$$$$&=    ",
"    &-***$$$$$$$$$$$$$$$$*;X  =X",
"    .&*****************:*&X> X==",
"   XX &&&&&&&&&&&&&&&&&&,X> XX=>",
"   XXo                 >XX  XX>X",
"   ooX.                 >X  >>XX",
"     XX                  > ====>",
"     oo                    <==< ",
"                            <<  "
};
